<svg xmlns="http://www.w3.org/2000/svg" viewBox="0 0 1200 700" width="1200" height="700" preserveAspectRatio="xMidYMid meet" style="width: 100%; height: 100%; transform: translate3d(0px, 0px, 0px);"><defs><clipPath id="__lottie_element_324"><rect width="1200" height="700" x="0" y="0"></rect></clipPath><linearGradient id="__lottie_element_331" spreadMethod="pad" gradientUnits="userSpaceOnUse" x1="-10.159000396728516" y1="20.75" x2="20.833999633789062" y2="6.544000148773193"><stop offset="19%" stop-color="rgb(8,104,186)"></stop><stop offset="34%" stop-color="rgb(8,104,185)"></stop><stop offset="47%" stop-color="rgb(8,103,184)"></stop><stop offset="55%" stop-color="rgb(8,100,180)"></stop><stop offset="63%" stop-color="rgb(9,98,176)"></stop><stop offset="69%" stop-color="rgb(9,94,169)"></stop><stop offset="75%" stop-color="rgb(10,89,162)"></stop><stop offset="80%" stop-color="rgb(11,83,152)"></stop><stop offset="85%" stop-color="rgb(12,78,143)"></stop><stop offset="88%" stop-color="rgb(13,72,134)"></stop><stop offset="92%" stop-color="rgb(14,67,125)"></stop></linearGradient><linearGradient id="__lottie_element_332" spreadMethod="pad" gradientUnits="userSpaceOnUse" x1="-29.81599998474121" y1="1.625" x2="25.799999237060547" y2="-8.520999908447266"><stop offset="50%" stop-color="rgb(0,122,216)"></stop><stop offset="55%" stop-color="rgb(1,111,198)"></stop><stop offset="61%" stop-color="rgb(2,101,179)"></stop></linearGradient><linearGradient id="__lottie_element_333" spreadMethod="pad" gradientUnits="userSpaceOnUse" x1="23.472000122070312" y1="12.649999618530273" x2="12.472000122070312" y2="-24.850000381469727"><stop offset="0%" stop-color="rgb(40,148,223)"></stop><stop offset="50%" stop-color="rgb(50,175,235)"></stop><stop offset="100%" stop-color="rgb(60,203,246)"></stop></linearGradient><radialGradient id="__lottie_element_374" spreadMethod="pad" gradientUnits="userSpaceOnUse" cx="232.50100708007812" cy="205.9600067138672" r="473.42115863955763" fx="232.50100708007812" fy="205.9600067138672"><stop offset="0%" stop-color="rgb(0,128,255)"></stop><stop offset="50%" stop-color="rgb(79,174,255)"></stop><stop offset="100%" stop-color="rgb(158,220,255)"></stop></radialGradient><mask id="__lottie_element_370" mask-type="alpha"><g transform="matrix(1,0,0,1,0,0)" opacity="1" style="display: block;"><g opacity="1" transform="matrix(1,0,0,1,611.2230224609375,355.6809997558594)"><path fill="rgb(131,204,255)" fill-opacity="1" d=" M198.89700317382812,-17.591999053955078 C192.79299926757812,-87.58799743652344 150.56700134277344,-147.23899841308594 90.9540023803711,-177.7969970703125 C63.67300033569336,-191.7779998779297 32.75600051879883,-199.66799926757812 0,-199.66799926757812 C-48.74100112915039,-199.66799926757812 -93.38300323486328,-182.2169952392578 -128.05299377441406,-153.2010040283203 C-166.21800231933594,-121.26799774169922 -192.26699829101562,-75.34100341796875 -198.31900024414062,-23.309999465942383 C-199.20599365234375,-15.663999557495117 -199.66799926757812,-7.889999866485596 -199.66799926757812,0 C-199.66799926757812,53.650001525878906 -178.51699829101562,102.35299682617188 -144.0780029296875,138.21800231933594 C-144.0780029296875,138.2310028076172 -144.06500244140625,138.2310028076172 -144.06500244140625,138.2310028076172 C-125.1240005493164,157.9949951171875 -102.13500213623047,173.86500549316406 -76.43399810791016,184.51800537109375 C-52.891998291015625,194.28399658203125 -27.075000762939453,199.66799926757812 0,199.66799926757812 C58.26300048828125,199.66799926757812 110.69200134277344,174.72500610351562 147.1739959716797,134.92799377441406 C171.0240020751953,108.93199920654297 188.07699584960938,76.61299896240234 195.49200439453125,40.76100158691406 C198.22900390625,27.601999282836914 199.66799926757812,13.968000411987305 199.66799926757812,0 C199.66799926757812,-5.923999786376953 199.41099548339844,-11.79699993133545 198.89700317382812,-17.591999053955078z"></path></g></g></mask></defs><g clip-path="url(#__lottie_element_324)"><g transform="matrix(1,0,0,1,0,0)" opacity="1" style="display: block;"><rect width="1200" height="700" fill="#ffffff"></rect></g><g transform="matrix(1.0553336143493652,0,0,1.0553336143493652,611.2230224609375,355.6809997558594)" opacity="0.3135670801846159" style="display: block;"><g opacity="1" transform="matrix(1,0,0,1,0,0)"><path fill="rgb(157,220,255)" fill-opacity="1" d=" M295.1159973144531,0 C295.1159973144531,162.98800659179688 162.98800659179688,295.1159973144531 0,295.1159973144531 C-162.98800659179688,295.1159973144531 -295.1159973144531,162.98800659179688 -295.1159973144531,0 C-295.1159973144531,-162.98800659179688 -162.98800659179688,-295.1159973144531 0,-295.1159973144531 C162.98800659179688,-295.1159973144531 295.1159973144531,-162.98800659179688 295.1159973144531,0z"></path></g></g><g style="display: block;" transform="matrix(0.9677557349205017,0,0,0.9677557349205017,611.2230224609375,355.6809997558594)" opacity="0.3057900906421324"><g opacity="1" transform="matrix(1,0,0,1,0,0)"><path fill="rgb(94,188,255)" fill-opacity="1" d=" M228.62899780273438,0 C228.62899780273438,126.26799774169922 126.26799774169922,228.62899780273438 0,228.62899780273438 C-126.26799774169922,228.62899780273438 -228.62899780273438,126.26799774169922 -228.62899780273438,0 C-228.62899780273438,-126.26799774169922 -126.26799774169922,-228.62899780273438 0,-228.62899780273438 C126.26799774169922,-228.62899780273438 228.62899780273438,-126.26799774169922 228.62899780273438,0z"></path></g></g><g style="display: none;" transform="matrix(1.1809178590774536,0,0,1.1809178590774536,611.2230224609375,355.6809997558594)" opacity="0.000029196885079798565"><g opacity="1" transform="matrix(1,0,0,1,0,0)"><path fill="rgb(157,220,255)" fill-opacity="1" d=" M295.1159973144531,0 C295.1159973144531,162.98800659179688 162.98800659179688,295.1159973144531 0,295.1159973144531 C-162.98800659179688,295.1159973144531 -295.1159973144531,162.98800659179688 -295.1159973144531,0 C-295.1159973144531,-162.98800659179688 -162.98800659179688,-295.1159973144531 0,-295.1159973144531 C162.98800659179688,-295.1159973144531 295.1159973144531,-162.98800659179688 295.1159973144531,0z"></path></g></g><g style="display: none;" transform="matrix(1.188462495803833,0,0,1.188462495803833,611.2230224609375,355.6809997558594)" opacity="0.00036752505693741003"><g opacity="1" transform="matrix(1,0,0,1,0,0)"><path fill="rgb(94,188,255)" fill-opacity="1" d=" M228.62899780273438,0 C228.62899780273438,126.26799774169922 126.26799774169922,228.62899780273438 0,228.62899780273438 C-126.26799774169922,228.62899780273438 -228.62899780273438,126.26799774169922 -228.62899780273438,0 C-228.62899780273438,-126.26799774169922 -126.26799774169922,-228.62899780273438 0,-228.62899780273438 C126.26799774169922,-228.62899780273438 228.62899780273438,-126.26799774169922 228.62899780273438,0z"></path></g></g><g transform="matrix(1,0,0,1,611.2230224609375,355.6809997558594)" opacity="1" style="display: block;"><g opacity="1" transform="matrix(1,0,0,1,0,0)" style="mix-blend-mode: overlay;"><path stroke-linecap="butt" stroke-linejoin="miter" fill-opacity="0" stroke-miterlimit="10" stroke="rgb(50,109,230)" stroke-opacity="1" stroke-width="3" d=" M207.9600067138672,0 C207.9600067138672,114.85299682617188 114.85299682617188,207.9600067138672 0,207.9600067138672 C-114.85299682617188,207.9600067138672 -207.9600067138672,114.85299682617188 -207.9600067138672,0 C-207.9600067138672,-114.85299682617188 -114.85299682617188,-207.9600067138672 0,-207.9600067138672 C114.85299682617188,-207.9600067138672 207.9600067138672,-114.85299682617188 207.9600067138672,0z"></path></g></g><g mask="url(#__lottie_element_370)" style="display: block;"><g transform="matrix(1,0,0,1,0,0)" opacity="1"><g opacity="1" transform="matrix(1,0,0,1,611.2230224609375,355.6809997558594)"><path fill="url(#__lottie_element_374)" fill-opacity="1" d=" M198.89700317382812,-17.591999053955078 C192.79299926757812,-87.58799743652344 150.56700134277344,-147.23899841308594 90.9540023803711,-177.7969970703125 C63.67300033569336,-191.7779998779297 32.75600051879883,-199.66799926757812 0,-199.66799926757812 C-48.74100112915039,-199.66799926757812 -93.38300323486328,-182.2169952392578 -128.05299377441406,-153.2010040283203 C-166.21800231933594,-121.26799774169922 -192.26699829101562,-75.34100341796875 -198.31900024414062,-23.309999465942383 C-199.20599365234375,-15.663999557495117 -199.66799926757812,-7.889999866485596 -199.66799926757812,0 C-199.66799926757812,53.650001525878906 -178.51699829101562,102.35299682617188 -144.0780029296875,138.21800231933594 C-144.0780029296875,138.2310028076172 -144.06500244140625,138.2310028076172 -144.06500244140625,138.2310028076172 C-125.1240005493164,157.9949951171875 -102.13500213623047,173.86500549316406 -76.43399810791016,184.51800537109375 C-52.891998291015625,194.28399658203125 -27.075000762939453,199.66799926757812 0,199.66799926757812 C58.26300048828125,199.66799926757812 110.69200134277344,174.72500610351562 147.1739959716797,134.92799377441406 C171.0240020751953,108.93199920654297 188.07699584960938,76.61299896240234 195.49200439453125,40.76100158691406 C198.22900390625,27.601999282836914 199.66799926757812,13.968000411987305 199.66799926757812,0 C199.66799926757812,-5.923999786376953 199.41099548339844,-11.79699993133545 198.89700317382812,-17.591999053955078z"></path></g><g opacity="1" transform="matrix(1,0,0,1,488.6499938964844,370.5119934082031)"><path fill="rgb(50,109,230)" fill-opacity="1" d=" M29.240999221801758,117.5479965209961 C29.240999221801758,117.5479965209961 33.01900100708008,141.82200622558594 44.790000915527344,168.85899353027344 C19.089000701904297,158.20599365234375 -3.9000000953674316,142.33700561523438 -22.840999603271484,122.572998046875 C-22.840999603271484,122.572998046875 -22.854000091552734,122.572998046875 -22.854000091552734,122.55999755859375 C-31.79800033569336,101.6780014038086 -39.91899871826172,80.62999725341797 -44.14699935913086,64.3740005493164 C-44.14699935913086,64.3740005493164 -7.986000061035156,13.331999778747559 -7.986000061035156,13.331999778747559 C-7.986000061035156,13.331999778747559 -41.80799865722656,-8.166999816894531 -77.09500122070312,-38.96900177001953 C-71.04299926757812,-91 -44.994998931884766,-136.92599487304688 -6.829999923706055,-168.85899353027344 C31.913999557495117,-141.06399536132812 71.51799774169922,-102.0510025024414 77.09500122070312,-94.08399963378906 C54.76100158691406,-56.124000549316406 -5.853000164031982,-5.815000057220459 -5.853000164031982,-5.815000057220459 C-5.853000164031982,-5.815000057220459 35.6150016784668,25.025999069213867 70.70899963378906,69.69400024414062 C36.680999755859375,112.22799682617188 29.240999221801758,117.5479965209961 29.240999221801758,117.5479965209961z"></path></g><g opacity="1" transform="matrix(1,0,0,1,711.81298828125,334.24700927734375)"><path fill="rgb(50,109,230)" fill-opacity="1" d=" M58.40700149536133,15.857000350952148 C58.40700149536133,15.857000350952148 78.76200103759766,42.058998107910156 94.9020004272461,62.19499969482422 C87.48699951171875,98.0469970703125 70.43499755859375,130.36700439453125 46.584999084472656,156.36300659179688 C46.584999084472656,156.36300659179688 19.05900001525879,146.13400268554688 19.05900001525879,146.13400268554688 C19.05900001525879,146.13400268554688 13.73900032043457,99.87300109863281 13.73900032043457,99.87300109863281 C13.73900032043457,99.87300109863281 2.0460000038146973,97.09700012207031 -34.654998779296875,88.17900085449219 C-51.66899871826172,67.43900299072266 -63.362998962402344,44.834999084472656 -63.362998962402344,44.834999084472656 C-52.736000061035156,30.738000869750977 -29.334999084472656,15.329999923706055 -29.334999084472656,15.329999923706055 C-29.334999084472656,15.329999923706055 -36.775001525878906,-2.2230000495910645 -36.775001525878906,-2.2230000495910645 C-36.775001525878906,-2.2230000495910645 -46.875999450683594,5.2170000076293945 -58.582000732421875,8.944000244140625 C-77.91000366210938,-8.48799991607666 -91.02899932861328,-24.575000762939453 -96.96900177001953,-32.375999450683594 C-99.05799865722656,-35.119998931884766 -98.65799713134766,-39.01100158691406 -96.06500244140625,-41.284000396728516 C-96.06500244140625,-41.284000396728516 -66.02300262451172,-67.61799621582031 -66.02300262451172,-67.61799621582031 C-66.02300262451172,-67.61799621582031 -79.8499984741211,-112.28600311279297 -79.8499984741211,-112.28600311279297 C-79.8499984741211,-112.28600311279297 -44.409000396728516,-137.10000610351562 -9.63599967956543,-156.36300659179688 C49.97700119018555,-125.80500030517578 92.2030029296875,-66.15399932861328 98.30699920654297,3.8420000076293945 C81.07499694824219,-8.944000244140625 58.40700149536133,-26.149999618530273 58.40700149536133,-26.149999618530273 C58.40700149536133,-26.149999618530273 -9.66100025177002,-10.729999542236328 -9.66100025177002,-10.729999542236328 C-9.66100025177002,-10.729999542236328 -5.4079999923706055,5.2170000076293945 -5.4079999923706055,5.2170000076293945 C-5.4079999923706055,5.2170000076293945 58.40700149536133,15.857000350952148 58.40700149536133,15.857000350952148z"></path></g><g opacity="0.33" transform="matrix(1,0,0,1,474.927001953125,281.1400146484375)"><path fill="rgb(81,201,131)" fill-opacity="1" d=" M-11.760000228881836,-74.91300201416016 C16.687999725341797,-54.95600128173828 44.06399917602539,-32.540000915527344 70.25900268554688,-7.413000106811523 C71.87300109863281,-5.864999771118164 72.09100341796875,-3.3410000801086426 70.75399780273438,-1.5479999780654907 C50.75199890136719,25.28700065612793 27.052000045776367,50.63800048828125 -0.11299999803304672,74.5999984741211 C-1.6059999465942383,75.91699981689453 -3.808000087738037,76.08699798583984 -5.47599983215332,75 C-27.881000518798828,60.402000427246094 -49.340999603271484,42.5629997253418 -70.23699951171875,22.791000366210938 C-71.43699645996094,21.655000686645508 -71.91000366210938,19.950000762939453 -71.46299743652344,18.358999252319336 C-68.04000091552734,6.192999839782715 -51.83100128173828,-45.71099853515625 -17.19700050354004,-74.66200256347656 C-15.645000457763672,-75.95899963378906 -13.416000366210938,-76.07499694824219 -11.760000228881836,-74.91300201416016z"></path></g><g opacity="1" transform="matrix(1,0,0,1,474.927001953125,281.1400146484375)"><path stroke-linecap="butt" stroke-linejoin="miter" fill-opacity="0" stroke-miterlimit="10" stroke="rgb(51,184,129)" stroke-opacity="1" stroke-width="2" d=" M-11.760000228881836,-74.91300201416016 C16.687999725341797,-54.95600128173828 44.06399917602539,-32.540000915527344 70.25900268554688,-7.413000106811523 C71.87300109863281,-5.864999771118164 72.09100341796875,-3.3410000801086426 70.75399780273438,-1.5479999780654907 C50.75199890136719,25.28700065612793 27.052000045776367,50.63800048828125 -0.11299999803304672,74.5999984741211 C-1.6059999465942383,75.91699981689453 -3.808000087738037,76.08699798583984 -5.47599983215332,75 C-27.881000518798828,60.402000427246094 -49.340999603271484,42.5629997253418 -70.23699951171875,22.791000366210938 C-71.43699645996094,21.655000686645508 -71.91000366210938,19.950000762939453 -71.46299743652344,18.358999252319336 C-68.04000091552734,6.192999839782715 -51.83100128173828,-45.71099853515625 -17.19700050354004,-74.66200256347656 C-15.645000457763672,-75.95899963378906 -13.416000366210938,-76.07499694824219 -11.760000228881836,-74.91300201416016z"></path></g><g opacity="1" transform="matrix(1,0,0,1,501.08599853515625,443.4389953613281)"><path stroke-linecap="butt" stroke-linejoin="miter" fill-opacity="0" stroke-miterlimit="10" stroke="rgb(255,184,61)" stroke-opacity="1" stroke-width="2" d=" M-9.614999771118164,-49.611000061035156 C-9.614999771118164,-49.611000061035156 -38.979000091552734,-8.074000358581543 -38.979000091552734,-8.074000358581543 C-39.555999755859375,-7.257999897003174 -39.70000076293945,-6.211999893188477 -39.3650016784668,-5.269999980926514 C-39.3650016784668,-5.269999980926514 -20.10700035095215,48.86600112915039 -20.10700035095215,48.86600112915039 C-19.415000915527344,50.810001373291016 -17.03499984741211,51.54399871826172 -15.383000373840332,50.30799865722656 C6.015999794006348,34.29600143432617 24.316999435424805,16.538000106811523 38.94599914550781,-3.2899999618530273 C39.7869987487793,-4.429999828338623 39.731998443603516,-6.011000156402588 38.821998596191406,-7.0970001220703125 C25.341999053955078,-23.180999755859375 10.753999710083008,-37.577999114990234 -5.198999881744385,-50.255001068115234 C-6.577000141143799,-51.349998474121094 -8.598999977111816,-51.04899978637695 -9.614999771118164,-49.611000061035156z"></path></g><g opacity="0.33" transform="matrix(1,0,0,1,501.08599853515625,443.4389953613281)"><path fill="rgb(255,184,61)" fill-opacity="1" d=" M-9.614999771118164,-49.611000061035156 C-9.614999771118164,-49.611000061035156 -38.979000091552734,-8.074000358581543 -38.979000091552734,-8.074000358581543 C-39.555999755859375,-7.257999897003174 -39.70000076293945,-6.211999893188477 -39.3650016784668,-5.269999980926514 C-39.3650016784668,-5.269999980926514 -20.10700035095215,48.86600112915039 -20.10700035095215,48.86600112915039 C-19.415000915527344,50.810001373291016 -17.03499984741211,51.54399871826172 -15.383000373840332,50.30799865722656 C6.015999794006348,34.29600143432617 24.316999435424805,16.538000106811523 38.94599914550781,-3.2899999618530273 C39.7869987487793,-4.429999828338623 39.731998443603516,-6.011000156402588 38.821998596191406,-7.0970001220703125 C25.341999053955078,-23.180999755859375 10.753999710083008,-37.577999114990234 -5.198999881744385,-50.255001068115234 C-6.577000141143799,-51.349998474121094 -8.598999977111816,-51.04899978637695 -9.614999771118164,-49.611000061035156z"></path></g><g opacity="1" transform="matrix(1,0,0,1,502.2799987792969,523.7979736328125)"><path stroke-linecap="butt" stroke-linejoin="miter" fill-opacity="0" stroke-miterlimit="10" stroke="rgb(71,163,255)" stroke-opacity="1" stroke-width="2" d=" M-23.792999267578125,-7.765999794006348 C-23.792999267578125,-7.765999794006348 1.5829999446868896,-25.548999786376953 1.5829999446868896,-25.548999786376953 C3.5420000553131104,-26.922000885009766 6.2729997634887695,-25.88599967956543 6.815000057220459,-23.555999755859375 C10.85099983215332,-6.192999839782715 17.06100082397461,14.369999885559082 23.792999267578125,26.165000915527344"></path></g><g opacity="0.33" transform="matrix(1,0,0,1,698.1430053710938,302.6300048828125)"><path fill="rgb(46,185,255)" fill-opacity="1" d=" M-51.5369987487793,-72.77799987792969 C-51.5369987487793,-72.77799987792969 -39.71799850463867,-34.91899871826172 -39.71799850463867,-34.91899871826172 C-39.33100128173828,-33.678001403808594 -39.696998596191406,-32.32600021362305 -40.65800094604492,-31.451000213623047 C-40.65800094604492,-31.451000213623047 -68.4260025024414,-6.1570000648498535 -68.4260025024414,-6.1570000648498535 C-69.79900360107422,-4.906000137329102 -69.88999938964844,-2.7750000953674316 -68.62699890136719,-1.4119999408721924 C-68.62699890136719,-1.4119999408721924 -44.553001403808594,24.56999969482422 -44.553001403808594,24.56999969482422 C-43.551998138427734,25.650999069213867 -41.96099853515625,25.948999404907227 -40.63600158691406,25.304000854492188 C-40.63600158691406,25.304000854492188 -20.8700008392334,15.678999900817871 -20.8700008392334,15.678999900817871 C-19.131000518798828,14.831999778747559 -17.038000106811523,15.633000373840332 -16.30900001525879,17.423999786376953 C-16.30900001525879,17.423999786376953 -3.371999979019165,49.198001861572266 -3.371999979019165,49.198001861572266 C-2.7200000286102295,50.79999923706055 -3.4049999713897705,52.61199951171875 -4.931000232696533,53.42599868774414 C-13.300999641418457,57.888999938964844 -22.80299949645996,65.7770004272461 -33.11600112915039,76.11900329589844 C-34.15700149536133,77.16300201416016 -34.37900161743164,78.7699966430664 -33.680999755859375,80.06900024414062 C-29.025999069213867,88.73400115966797 -23.33099937438965,98.2969970703125 -15.404999732971191,108.8489990234375 C-14.439000129699707,110.13500213623047 -12.684000015258789,110.53500366210938 -11.246000289916992,109.81600189208984 C-11.246000289916992,109.81600189208984 67.66899871826172,70.34600067138672 67.66899871826172,70.34600067138672 C69.48500061035156,69.43800354003906 70.0790023803711,67.13400268554688 68.92900085449219,65.46099853515625 C68.92900085449219,65.46099853515625 63.797000885009766,57.99300003051758 63.797000885009766,57.99300003051758 C63.26599884033203,57.220001220703125 62.43600082397461,56.707000732421875 61.507999420166016,56.57600021362305 C61.507999420166016,56.57600021362305 7.017000198364258,48.90599822998047 7.017000198364258,48.90599822998047 C5.743000030517578,48.72700119018555 4.684999942779541,47.832000732421875 4.296000003814697,46.60599899291992 C4.296000003814697,46.60599899291992 -6.13700008392334,13.741000175476074 -6.13700008392334,13.741000175476074 C-6.716000080108643,11.918000221252441 -5.651000022888184,9.982999801635742 -3.8010001182556152,9.496000289916992 C-3.8010001182556152,9.496000289916992 22.23699951171875,2.6449999809265137 22.23699951171875,2.6449999809265137 C23.51799964904785,2.308000087738037 24.479000091552734,1.246999979019165 24.687999725341797,-0.05999999865889549 C24.687999725341797,-0.05999999865889549 38.05799865722656,-83.572998046875 38.05799865722656,-83.572998046875 C38.236000061035156,-84.68699645996094 37.84600067138672,-85.8239974975586 37.00899887084961,-86.58000183105469 C27.388999938964844,-95.27799987792969 17.18199920654297,-102.04399871826172 5.860000133514404,-109.6050033569336 C4.761000156402588,-110.33899688720703 3.3269999027252197,-110.36199951171875 2.2100000381469727,-109.65699768066406 C2.2100000381469727,-109.65699768066406 -50.130001068115234,-76.60199737548828 -50.130001068115234,-76.60199737548828 C-51.4109992980957,-75.79299926757812 -51.987998962402344,-74.2239990234375 -51.5369987487793,-72.77799987792969z"></path></g><g opacity="1" transform="matrix(1,0,0,1,698.1430053710938,302.6300048828125)"><path stroke-linecap="butt" stroke-linejoin="miter" fill-opacity="0" stroke-miterlimit="10" stroke="rgb(71,163,255)" stroke-opacity="1" stroke-width="2" d=" M-51.5369987487793,-72.77799987792969 C-51.5369987487793,-72.77799987792969 -39.71799850463867,-34.91899871826172 -39.71799850463867,-34.91899871826172 C-39.33100128173828,-33.678001403808594 -39.696998596191406,-32.32600021362305 -40.65800094604492,-31.451000213623047 C-40.65800094604492,-31.451000213623047 -68.4260025024414,-6.1570000648498535 -68.4260025024414,-6.1570000648498535 C-69.79900360107422,-4.906000137329102 -69.88999938964844,-2.7750000953674316 -68.62699890136719,-1.4119999408721924 C-68.62699890136719,-1.4119999408721924 -44.553001403808594,24.56999969482422 -44.553001403808594,24.56999969482422 C-43.551998138427734,25.650999069213867 -41.96099853515625,25.948999404907227 -40.63600158691406,25.304000854492188 C-40.63600158691406,25.304000854492188 -20.8700008392334,15.678999900817871 -20.8700008392334,15.678999900817871 C-19.131000518798828,14.831999778747559 -17.038000106811523,15.633000373840332 -16.30900001525879,17.423999786376953 C-16.30900001525879,17.423999786376953 -3.371999979019165,49.198001861572266 -3.371999979019165,49.198001861572266 C-2.7200000286102295,50.79999923706055 -3.4049999713897705,52.61199951171875 -4.931000232696533,53.42599868774414 C-13.300999641418457,57.888999938964844 -22.80299949645996,65.7770004272461 -33.11600112915039,76.11900329589844 C-34.15700149536133,77.16300201416016 -34.37900161743164,78.7699966430664 -33.680999755859375,80.06900024414062 C-29.025999069213867,88.73400115966797 -23.33099937438965,98.2969970703125 -15.404999732971191,108.8489990234375 C-14.439000129699707,110.13500213623047 -12.684000015258789,110.53500366210938 -11.246000289916992,109.81600189208984 C-11.246000289916992,109.81600189208984 67.66899871826172,70.34600067138672 67.66899871826172,70.34600067138672 C69.48500061035156,69.43800354003906 70.0790023803711,67.13400268554688 68.92900085449219,65.46099853515625 C68.92900085449219,65.46099853515625 63.797000885009766,57.99300003051758 63.797000885009766,57.99300003051758 C63.26599884033203,57.220001220703125 62.43600082397461,56.707000732421875 61.507999420166016,56.57600021362305 C61.507999420166016,56.57600021362305 7.017000198364258,48.90599822998047 7.017000198364258,48.90599822998047 C5.743000030517578,48.72700119018555 4.684999942779541,47.832000732421875 4.296000003814697,46.60599899291992 C4.296000003814697,46.60599899291992 -6.13700008392334,13.741000175476074 -6.13700008392334,13.741000175476074 C-6.716000080108643,11.918000221252441 -5.651000022888184,9.982999801635742 -3.8010001182556152,9.496000289916992 C-3.8010001182556152,9.496000289916992 22.23699951171875,2.6449999809265137 22.23699951171875,2.6449999809265137 C23.51799964904785,2.308000087738037 24.479000091552734,1.246999979019165 24.687999725341797,-0.05999999865889549 C24.687999725341797,-0.05999999865889549 38.05799865722656,-83.572998046875 38.05799865722656,-83.572998046875 C38.236000061035156,-84.68699645996094 37.84600067138672,-85.8239974975586 37.00899887084961,-86.58000183105469 C27.388999938964844,-95.27799987792969 17.18199920654297,-102.04399871826172 5.860000133514404,-109.6050033569336 C4.761000156402588,-110.33899688720703 3.3269999027252197,-110.36199951171875 2.2100000381469727,-109.65699768066406 C2.2100000381469727,-109.65699768066406 -50.130001068115234,-76.60199737548828 -50.130001068115234,-76.60199737548828 C-51.4109992980957,-75.79299926757812 -51.987998962402344,-74.2239990234375 -51.5369987487793,-72.77799987792969z"></path></g><g opacity="1" transform="matrix(1,0,0,1,774.8800048828125,268.44500732421875)"><path stroke-linecap="butt" stroke-linejoin="miter" fill-opacity="0" stroke-miterlimit="10" stroke="rgb(71,163,255)" stroke-opacity="1" stroke-width="2" d=" M-11.289999961853027,-55.310001373291016 C-11.256999969482422,-55.27199935913086 -24.733999252319336,-41.481998443603516 -27.761999130249023,-38.3849983215332 C-28.15399932861328,-37.98400115966797 -28.405000686645508,-37.4739990234375 -28.48699951171875,-36.91899871826172 C-28.48699951171875,-36.91899871826172 -38.33599853515625,30.07699966430664 -38.33599853515625,30.07699966430664 C-38.60300064086914,31.889999389648438 -36.994998931884766,33.422000885009766 -35.196998596191406,33.069000244140625 C-35.196998596191406,33.069000244140625 -1.850000023841858,26.524999618530273 -1.850000023841858,26.524999618530273 C-1.1160000562667847,26.381000518798828 -0.35499998927116394,26.55299949645996 0.24500000476837158,26.999000549316406 C0.24500000476837158,26.999000549316406 38.3650016784668,55.310001373291016 38.3650016784668,55.310001373291016"></path></g><g opacity="0.33" transform="matrix(1,0,0,1,758.0819702148438,432.4939880371094)"><path fill="rgb(255,255,255)" fill-opacity="1" d=" M-49.80799865722656,-13.949000358581543 C-49.80799865722656,-13.949000358581543 -21.60300064086914,-8.838000297546387 -21.60300064086914,-8.838000297546387 C-21.038999557495117,-8.727999687194824 -20.610000610351562,-8.267999649047852 -20.538999557495117,-7.697999954223633 C-20.538999557495117,-7.697999954223633 -14.793000221252441,38.275001525878906 -14.793000221252441,38.275001525878906 C-14.725000381469727,38.814998626708984 -14.336000442504883,39.2599983215332 -13.809000015258789,39.39699935913086 C-13.809000015258789,39.39699935913086 31.052000045776367,51.10100173950195 31.052000045776367,51.10100173950195 C31.753999710083008,51.284000396728516 32.472999572753906,50.87099838256836 32.66899871826172,50.17300033569336 C32.66899871826172,50.17300033569336 50.83300018310547,-14.675999641418457 50.83300018310547,-14.675999641418457 C50.952999114990234,-15.102999687194824 50.85200119018555,-15.562000274658203 50.56399917602539,-15.89900016784668 C50.56399917602539,-15.89900016784668 22.14299964904785,-50.678001403808594 22.14299964904785,-50.678001403808594 C21.7450008392334,-51.14400100708008 21.08099937438965,-51.277000427246094 20.534000396728516,-51.00199890136719 C20.534000396728516,-51.00199890136719 -50.150001525878906,-16.44300079345703 -50.150001525878906,-16.44300079345703 C-51.28200149536133,-15.873000144958496 -51.051998138427734,-14.192999839782715 -49.80799865722656,-13.949000358581543z"></path></g><g opacity="1" transform="matrix(1,0,0,1,758.0819702148438,432.4939880371094)"><path stroke-linecap="butt" stroke-linejoin="miter" fill-opacity="0" stroke-miterlimit="10" stroke="rgb(255,255,255)" stroke-opacity="1" stroke-width="2" d=" M-49.80799865722656,-13.949000358581543 C-49.80799865722656,-13.949000358581543 -21.60300064086914,-8.838000297546387 -21.60300064086914,-8.838000297546387 C-21.038999557495117,-8.727999687194824 -20.610000610351562,-8.267999649047852 -20.538999557495117,-7.697999954223633 C-20.538999557495117,-7.697999954223633 -14.793000221252441,38.275001525878906 -14.793000221252441,38.275001525878906 C-14.725000381469727,38.814998626708984 -14.336000442504883,39.2599983215332 -13.809000015258789,39.39699935913086 C-13.809000015258789,39.39699935913086 31.052000045776367,51.10100173950195 31.052000045776367,51.10100173950195 C31.753999710083008,51.284000396728516 32.472999572753906,50.87099838256836 32.66899871826172,50.17300033569336 C32.66899871826172,50.17300033569336 50.83300018310547,-14.675999641418457 50.83300018310547,-14.675999641418457 C50.952999114990234,-15.102999687194824 50.85200119018555,-15.562000274658203 50.56399917602539,-15.89900016784668 C50.56399917602539,-15.89900016784668 22.14299964904785,-50.678001403808594 22.14299964904785,-50.678001403808594 C21.7450008392334,-51.14400100708008 21.08099937438965,-51.277000427246094 20.534000396728516,-51.00199890136719 C20.534000396728516,-51.00199890136719 -50.150001525878906,-16.44300079345703 -50.150001525878906,-16.44300079345703 C-51.28200149536133,-15.873000144958496 -51.051998138427734,-14.192999839782715 -49.80799865722656,-13.949000358581543z"></path></g></g></g><g transform="matrix(1,0,0,1,497.4100036621094,446.28399658203125)" opacity="1" style="display: block;"><g opacity="1" transform="matrix(1,0,0,1,0,0)"><path stroke-linecap="round" stroke-linejoin="round" fill-opacity="0" stroke-dasharray=" 3 6" stroke-dashoffset="-18.898639678955078" stroke="rgb(255,255,255)" stroke-opacity="1" stroke-width="2" d=" M7.750999927520752,-21.052000045776367 C7.750999927520752,-21.052000045776367 -7.750999927520752,21.052000045776367 -7.750999927520752,21.052000045776367"></path></g></g><g transform="matrix(1,0,0,1,770.5009765625,420.8869934082031)" opacity="1" style="display: block;"><g opacity="1" transform="matrix(1,0,0,1,0,0)"><path stroke-linecap="round" stroke-linejoin="round" fill-opacity="0" stroke-dasharray=" 3 6" stroke-dashoffset="-19.893360137939453" stroke="rgb(255,255,255)" stroke-opacity="1" stroke-width="2" d=" M15.644000053405762,0 C15.644000053405762,0 -15.644000053405762,0 -15.644000053405762,0"></path></g></g><g transform="matrix(1,0,0,1,700.8619995117188,328.7349853515625)" opacity="1" style="display: block;"><g opacity="1" transform="matrix(1,0,0,1,0,0)"><path stroke-linecap="round" stroke-linejoin="round" fill-opacity="0" stroke-dasharray=" 3 6" stroke-dashoffset="-14.920000076293945" stroke="rgb(255,255,255)" stroke-opacity="1" stroke-width="2" d=" M-3.7709999084472656,47.630001068115234 C-3.7709999084472656,47.630001068115234 3.7709999084472656,-47.630001068115234 3.7709999084472656,-47.630001068115234"></path></g></g><g transform="matrix(1,0,0,1,473.2799987792969,286.7850036621094)" opacity="1" style="display: block;"><g opacity="1" transform="matrix(1,0,0,1,0,0)"><path stroke-linecap="round" stroke-linejoin="round" fill-opacity="0" stroke-dasharray=" 3 6" stroke-dashoffset="-16.90928077697754" stroke="rgb(255,255,255)" stroke-opacity="1" stroke-width="2" d=" M-31.8799991607666,9.097999572753906 C-31.8799991607666,9.097999572753906 31.8799991607666,-9.097999572753906 31.8799991607666,-9.097999572753906"></path></g></g><g transform="matrix(1.017838954925537,0,0,1.017838954925537,505.1600036621094,425.23199462890625)" opacity="1" style="display: block;"><g opacity="1" transform="matrix(1,0,0,1,0,0)"><path fill="rgb(255,255,255)" fill-opacity="1" d=" M4.34499979019165,0 C4.34499979019165,2.4000000953674316 2.4000000953674316,4.34499979019165 0,4.34499979019165 C-2.4000000953674316,4.34499979019165 -4.34499979019165,2.4000000953674316 -4.34499979019165,0 C-4.34499979019165,-2.4000000953674316 -2.4000000953674316,-4.34499979019165 0,-4.34499979019165 C2.4000000953674316,-4.34499979019165 4.34499979019165,-2.4000000953674316 4.34499979019165,0z"></path></g></g><g transform="matrix(1.023982048034668,0,0,1.023982048034668,786.14599609375,420.8869934082031)" opacity="1" style="display: block;"><g opacity="1" transform="matrix(1,0,0,1,0,0)"><path fill="rgb(255,255,255)" fill-opacity="1" d=" M4.34499979019165,0 C4.34499979019165,2.4000000953674316 2.4000000953674316,4.34499979019165 0,4.34499979019165 C-2.4000000953674316,4.34499979019165 -4.34499979019165,2.4000000953674316 -4.34499979019165,0 C-4.34499979019165,-2.4000000953674316 -2.4000000953674316,-4.34499979019165 0,-4.34499979019165 C2.4000000953674316,-4.34499979019165 4.34499979019165,-2.4000000953674316 4.34499979019165,0z"></path></g></g><g transform="matrix(1.134160041809082,0,0,1.134160041809082,697.0910034179688,376.364990234375)" opacity="1" style="display: block;"><g opacity="1" transform="matrix(1,0,0,1,0,0)"><path fill="rgb(255,255,255)" fill-opacity="1" d=" M4.34499979019165,0 C4.34499979019165,2.4000000953674316 2.4000000953674316,4.34499979019165 0,4.34499979019165 C-2.4000000953674316,4.34499979019165 -4.34499979019165,2.4000000953674316 -4.34499979019165,0 C-4.34499979019165,-2.4000000953674316 -2.4000000953674316,-4.34499979019165 0,-4.34499979019165 C2.4000000953674316,-4.34499979019165 4.34499979019165,-2.4000000953674316 4.34499979019165,0z"></path></g></g><g transform="matrix(1.19984769821167,0,0,1.19984769821167,441.3999938964844,295.8819885253906)" opacity="1" style="display: block;"><g opacity="1" transform="matrix(1,0,0,1,0,0)"><path fill="rgb(255,255,255)" fill-opacity="1" d=" M4.34499979019165,0 C4.34499979019165,2.4000000953674316 2.4000000953674316,4.34499979019165 0,4.34499979019165 C-2.4000000953674316,4.34499979019165 -4.34499979019165,2.4000000953674316 -4.34499979019165,0 C-4.34499979019165,-2.4000000953674316 -2.4000000953674316,-4.34499979019165 0,-4.34499979019165 C2.4000000953674316,-4.34499979019165 4.34499979019165,-2.4000000953674316 4.34499979019165,0z"></path></g></g><g transform="matrix(1,0,0,1,0,0)" opacity="1" style="display: block;"><g opacity="1" transform="matrix(1,0,0,1,0,0)"><g opacity="1" transform="matrix(1,0,0,1,355.1409912109375,545.3369750976562)"><path fill="rgb(255,153,0)" fill-opacity="1" d=" M2.76200008392334,6.991000175476074 C-9.071000099182129,6.953999996185303 -19.535999298095703,3.119999885559082 -28.66900062561035,-4.395999908447266 C-29.23200035095215,-4.859000205993652 -29.764999389648438,-5.360000133514404 -30.308000564575195,-5.8470001220703125 C-30.591999053955078,-6.1020002365112305 -30.93400001525879,-6.40500020980835 -30.6560001373291,-6.794000148773193 C-30.378000259399414,-7.183000087738037 -29.98200035095215,-6.955999851226807 -29.655000686645508,-6.763000011444092 C-25.450000762939453,-4.2820000648498535 -21.009000778198242,-2.3310000896453857 -16.354000091552734,-0.8659999966621399 C-12.498000144958496,0.34700000286102295 -8.565999984741211,1.2070000171661377 -4.552000045776367,1.7070000171661377 C-1.3020000457763672,2.111999988555908 1.9589999914169312,2.3440001010894775 5.230999946594238,2.2309999465942383 C13.336000442504883,1.9509999752044678 21.150999069213867,0.2879999876022339 28.638999938964844,-2.8540000915527344 C28.8799991607666,-2.9549999237060547 29.1200008392334,-3.059999942779541 29.367000579833984,-3.1470000743865967 C29.90399932861328,-3.3369998931884766 30.440000534057617,-3.184999942779541 30.656999588012695,-2.7929999828338623 C30.87700080871582,-2.3959999084472656 30.738000869750977,-1.8450000286102295 30.257999420166016,-1.5230000019073486 C28.937999725341797,-0.6389999985694885 27.642000198364258,0.28999999165534973 26.260000228881836,1.0670000314712524 C21.30299949645996,3.8559999465942383 15.96399974822998,5.540999889373779 10.359999656677246,6.434999942779541 C7.84499979019165,6.835999965667725 5.321000099182129,7.072000026702881 2.76200008392334,6.991000175476074z"></path></g><g opacity="1" transform="matrix(1,0,0,1,359.12200927734375,522.3729858398438)"><path fill="rgb(35,47,62)" fill-opacity="1" d=" M-5.706999778747559,5.758999824523926 C-5.315999984741211,4.110000133514404 -4.925000190734863,2.4609999656677246 -4.535999774932861,0.8119999766349792 C-3.7850000858306885,-2.371000051498413 -3.0350000858306885,-5.553999900817871 -2.2820000648498535,-8.737000465393066 C-2.0380001068115234,-9.767000198364258 -1.8020000457763672,-9.949999809265137 -0.7310000061988831,-9.958999633789062 C-0.2070000022649765,-9.96399974822998 0.31700000166893005,-9.968999862670898 0.8410000205039978,-9.956000328063965 C1.7489999532699585,-9.932999610900879 1.9889999628067017,-9.756999969482422 2.203000068664551,-8.86299991607666 C2.990999937057495,-5.572999954223633 3.7639999389648438,-2.2809998989105225 4.541999816894531,1.0110000371932983 C4.932000160217285,2.6630001068115234 5.321000099182129,4.315999984741211 5.828999996185303,5.991000175476074 C5.889999866485596,5.793000221252441 5.959000110626221,5.5970001220703125 6.011000156402588,5.396999835968018 C7.218999862670898,0.7300000190734863 8.425000190734863,-3.937999963760376 9.633000373840332,-8.604999542236328 C9.940999984741211,-9.795999526977539 10.154000282287598,-9.958000183105469 11.380000114440918,-9.960000038146973 C11.904000282287598,-9.961000442504883 12.428000450134277,-9.968000411987305 12.95199966430664,-9.956999778747559 C13.54800033569336,-9.944000244140625 13.718000411987305,-9.737000465393066 13.626999855041504,-9.144000053405762 C13.598999977111816,-8.960000038146973 13.541999816894531,-8.779999732971191 13.486000061035156,-8.60200023651123 C11.670000076293945,-2.806999921798706 9.852999687194824,2.98799991607666 8.03499984741211,8.781999588012695 C7.714000225067139,9.805000305175781 7.506999969482422,9.954999923706055 6.427000045776367,9.961000442504883 C5.921999931335449,9.96399974822998 5.415999889373779,9.965999603271484 4.910999774932861,9.960000038146973 C3.9149999618530273,9.946999549865723 3.6659998893737793,9.758000373840332 3.430000066757202,8.791000366210938 C2.569999933242798,5.269000053405762 1.715999960899353,1.746000051498413 0.859000027179718,-1.7769999504089355 C0.5590000152587891,-3.009000062942505 0.2590000033378601,-4.242000102996826 -0.15000000596046448,-5.48199987411499 C-0.41499999165534973,-4.394999980926514 -0.6830000281333923,-3.309000015258789 -0.9440000057220459,-2.2209999561309814 C-1.8140000104904175,1.4140000343322754 -2.681999921798706,5.048999786376953 -3.5510001182556152,8.684000015258789 C-3.809999942779541,9.767000198364258 -4.051000118255615,9.954999923706055 -5.179999828338623,9.961000442504883 C-5.629000186920166,9.963000297546387 -6.078000068664551,9.963000297546387 -6.5269999504089355,9.961999893188477 C-7.670000076293945,9.958000183105469 -7.88700008392334,9.805999755859375 -8.21399974822998,8.729999542236328 C-9.42199993133545,4.76200008392334 -10.626999855041504,0.7919999957084656 -11.831000328063965,-3.177999973297119 C-12.401000022888184,-5.054999828338623 -12.977999687194824,-6.931000232696533 -13.527999877929688,-8.814000129699707 C-13.807000160217285,-9.767000198364258 -13.645999908447266,-9.958999633789062 -12.675999641418457,-9.960000038146973 C-12.11400032043457,-9.961000442504883 -11.552000045776367,-9.965999603271484 -10.991000175476074,-9.958000183105469 C-10.098999977111816,-9.944999694824219 -9.831999778747559,-9.760000228881836 -9.602999687194824,-8.883999824523926 C-8.954999923706055,-6.4070000648498535 -8.329000473022461,-3.924999952316284 -7.697000026702881,-1.444000005722046 C-7.125,0.8019999861717224 -6.556000232696533,3.0480000972747803 -5.984000205993652,5.294000148773193 C-5.943999767303467,5.452000141143799 -5.886000156402588,5.605999946594238 -5.835999965667725,5.76200008392334 C-5.793000221252441,5.761000156402588 -5.75,5.760000228881836 -5.706999778747559,5.758999824523926z"></path></g><g opacity="1" transform="matrix(1,0,0,1,335.7640075683594,522.3389892578125)"><path fill="rgb(35,47,62)" fill-opacity="1" d=" M3.9709999561309814,-1.1690000295639038 C3.8570001125335693,-2.4240000247955322 3.8489999771118164,-3.6470000743865967 3.61299991607666,-4.823999881744385 C3.2899999618530273,-6.434000015258789 2.0829999446868896,-7.232999801635742 0.1679999977350235,-7.392000198364258 C-1.9359999895095825,-7.566999912261963 -3.9170000553131104,-7.105000019073486 -5.848999977111816,-6.330999851226807 C-7.209000110626221,-5.785999774932861 -7.2820000648498535,-5.880000114440918 -7.36299991607666,-7.340000152587891 C-7.420000076293945,-8.371000289916992 -7.013000011444092,-8.913000106811523 -6.0879998207092285,-9.288999557495117 C-3.4079999923706055,-10.378999710083008 -0.6639999747276306,-10.795000076293945 2.203000068664551,-10.300999641418457 C5.361999988555908,-9.756999969482422 7.293000221252441,-7.7129998207092285 7.443999767303467,-4.504000186920166 C7.571000099182129,-1.7960000038146973 7.558000087738037,0.9210000038146973 7.5320000648498535,3.634000062942505 C7.51800012588501,5.093999862670898 7.761000156402588,6.452000141143799 8.489999771118164,7.72599983215332 C8.821999549865723,8.305999755859375 8.73799991607666,8.583000183105469 8.201000213623047,8.960000038146973 C7.757999897003174,9.272000312805176 7.302999973297119,9.569000244140625 6.84499979019165,9.859000205993652 C6.368000030517578,10.16100025177002 5.88700008392334,10.137999534606934 5.543000221252441,9.684000015258789 C5.015999794006348,8.98900032043457 4.546999931335449,8.25 4.007999897003174,7.464000225067139 C3.8429999351501465,7.639999866485596 3.6540000438690186,7.855999946594238 3.4489998817443848,8.057000160217285 C1.2869999408721924,10.173999786376953 -1.3250000476837158,10.887999534606934 -4.242000102996826,10.319000244140625 C-7.409999847412109,9.701000213623047 -9.010000228881836,7.033999919891357 -8.631999969482422,3.815999984741211 C-8.279999732971191,0.8190000057220459 -6.057000160217285,-1.2209999561309814 -2.8910000324249268,-1.6480000019073486 C-0.8370000123977661,-1.9249999523162842 1.1740000247955322,-1.6690000295639038 3.178999900817871,-1.2580000162124634 C3.325000047683716,-1.2280000448226929 3.4709999561309814,-1.1959999799728394 3.618000030517578,-1.1699999570846558 C3.6710000038146973,-1.1610000133514404 3.7279999256134033,-1.1690000295639038 3.9709999561309814,-1.1690000295639038z M3.864000082015991,1.3799999952316284 C1.9520000219345093,0.9599999785423279 0.05299999937415123,0.6539999842643738 -1.875,1.0099999904632568 C-4.199999809265137,1.440000057220459 -5.265999794006348,3.190999984741211 -4.678999900817871,5.494999885559082 C-4.414000034332275,6.535999774932861 -3.759000062942505,7.228000164031982 -2.7219998836517334,7.439000129699707 C-0.8669999837875366,7.815999984741211 0.8500000238418579,7.439000129699707 2.3420000076293945,6.244999885559082 C3.9189999103546143,4.984000205993652 3.9030001163482666,3.2100000381469727 3.864000082015991,1.3799999952316284z"></path></g><g opacity="1" transform="matrix(1,0,0,1,381.68798828125,522.3770141601562)"><path fill="rgb(35,47,62)" fill-opacity="1" d=" M-0.574999988079071,10.550000190734863 C-2.434999942779541,10.49899959564209 -4.276000022888184,10.21500015258789 -6.02400016784668,9.482000350952148 C-7.252999782562256,8.967000007629395 -7.749000072479248,7.790999889373779 -7.291999816894531,6.535999774932861 C-7.109000205993652,6.0329999923706055 -6.7220001220703125,6.160999774932861 -6.354000091552734,6.283999919891357 C-5.39900016784668,6.603000164031982 -4.460000038146973,6.991000175476074 -3.484999895095825,7.22599983215332 C-1.871000051498413,7.616000175476074 -0.22599999606609344,7.7170000076293945 1.4049999713897705,7.301000118255615 C2.4609999656677246,7.0320000648498535 3.361999988555908,6.5269999504089355 3.688999891281128,5.375999927520752 C4.005000114440918,4.263000011444092 3.6510000228881836,3.2339999675750732 2.635999917984009,2.678999900817871 C1.8890000581741333,2.2699999809265137 1.0700000524520874,1.9800000190734863 0.2630000114440918,1.6950000524520874 C-0.7940000295639038,1.3220000267028809 -1.8799999952316284,1.0329999923706055 -2.937000036239624,0.6610000133514404 C-4.565000057220459,0.08699999749660492 -5.886000156402588,-0.8709999918937683 -6.627999782562256,-2.492000102996826 C-7.696000099182129,-4.823999881744385 -6.960000038146973,-7.48799991607666 -4.7829999923706055,-9.057000160217285 C-3.010999917984009,-10.333999633789062 -0.9769999980926514,-10.706999778747559 1.1380000114440918,-10.493000030517578 C2.4100000858306885,-10.36400032043457 3.681999921798706,-10.0649995803833 4.906000137329102,-9.687000274658203 C6.295000076293945,-9.258000373840332 6.763000011444092,-8.175000190734863 6.321000099182129,-6.795000076293945 C6.170000076293945,-6.324999809265137 5.823999881744385,-6.382999897003174 5.452000141143799,-6.505000114440918 C4.548999786376953,-6.801000118255615 3.6559998989105225,-7.158999919891357 2.7309999465942383,-7.355000019073486 C1.3489999771118164,-7.6479997634887695 -0.05999999865889549,-7.671000003814697 -1.440999984741211,-7.297999858856201 C-2.7929999828338623,-6.933000087738037 -3.437999963760376,-6.117000102996826 -3.4230000972747803,-4.868000030517578 C-3.4130001068115234,-4.026000022888184 -3.0309998989105225,-3.367000102996826 -2.315999984741211,-2.9739999771118164 C-1.6330000162124634,-2.5980000495910645 -0.902999997138977,-2.2929999828338623 -0.1679999977350235,-2.0290000438690186 C1.1679999828338623,-1.5499999523162842 2.5409998893737793,-1.1729999780654907 3.865999937057495,-0.6669999957084656 C5.934999942779541,0.12399999797344208 7.2769999504089355,1.5720000267028809 7.440999984741211,3.8559999465942383 C7.610000133514404,6.215000152587891 6.605999946594238,8.032999992370605 4.611999988555908,9.279999732971191 C3.0380001068115234,10.263999938964844 1.2690000534057617,10.526000022888184 -0.574999988079071,10.550000190734863z"></path></g><g opacity="1" transform="matrix(1,0,0,1,385.8479919433594,543.4019775390625)"><path fill="rgb(255,153,0)" fill-opacity="1" d=" M-0.6940000057220459,-3.7249999046325684 C-2.2119998931884766,-3.5899999141693115 -3.865999937057495,-3.434000015258789 -5.520999908447266,-3.305000066757202 C-5.765999794006348,-3.2860000133514404 -6.020999908447266,-3.3959999084472656 -6.270999908447266,-3.446000099182129 C-6.125,-3.680999994277954 -6.033999919891357,-3.994999885559082 -5.824999809265137,-4.138999938964844 C-4.609000205993652,-4.98199987411499 -3.236999988555908,-5.4770002365112305 -1.7960000038146973,-5.763000011444092 C0.3100000023841858,-6.181000232696533 2.427999973297119,-6.241000175476074 4.544000148773193,-5.810999870300293 C4.617000102996826,-5.796000003814697 4.690999984741211,-5.781000137329102 4.763000011444092,-5.76200008392334 C6.124000072479248,-5.409999847412109 6.36899995803833,-4.960000038146973 6.241000175476074,-3.5369999408721924 C5.98799991607666,-0.734000027179718 5.10699987411499,1.8309999704360962 3.4670000076293945,4.113999843597412 C3.013000011444092,4.745999813079834 2.440999984741211,5.300000190734863 1.878000020980835,5.843999862670898 C1.7059999704360962,6.010000228881836 1.3849999904632568,6.0229997634887695 1.1330000162124634,6.105999946594238 C1.1349999904632568,5.8460001945495605 1.0750000476837158,5.565999984741211 1.1510000228881836,5.329999923706055 C1.7790000438690186,3.3949999809265137 2.434999942779541,1.4700000286102295 3.072000026702881,-0.4620000123977661 C3.1530001163482666,-0.7080000042915344 3.1689999103546143,-0.9739999771118164 3.2139999866485596,-1.2309999465942383 C3.4639999866485596,-2.6500000953674316 2.9509999752044678,-3.365000009536743 1.5140000581741333,-3.5450000762939453 C0.8299999833106995,-3.630000114440918 0.13899999856948853,-3.6589999198913574 -0.6940000057220459,-3.7249999046325684z"></path></g></g><g opacity="1" transform="matrix(1,0,0,1,401.3590087890625,518.6840209960938)"><path stroke-linecap="butt" stroke-linejoin="miter" fill-opacity="0" stroke-miterlimit="10" stroke="rgb(59,55,117)" stroke-opacity="1" stroke-width="2" d=" M86.8759994506836,-47.766998291015625 C86.8759994506836,-47.766998291015625 49.321998596191406,34.8380012512207 49.321998596191406,34.8380012512207 C45.75400161743164,42.709999084472656 37.9119987487793,47.766998291015625 29.268999099731445,47.766998291015625 C29.268999099731445,47.766998291015625 -86.8759994506836,47.766998291015625 -86.8759994506836,47.766998291015625"></path></g><g opacity="1" transform="matrix(1,0,0,1,489.65899658203125,467.33599853515625)"><path fill="rgb(255,255,255)" fill-opacity="1" d=" M7.541999816894531,0 C7.541999816894531,4.164999961853027 4.164999961853027,7.541999816894531 0,7.541999816894531 C-4.164999961853027,7.541999816894531 -7.541999816894531,4.164999961853027 -7.541999816894531,0 C-7.541999816894531,-4.164999961853027 -4.164999961853027,-7.541999816894531 0,-7.541999816894531 C4.164999961853027,-7.541999816894531 7.541999816894531,-4.164999961853027 7.541999816894531,0z"></path></g><g opacity="1" transform="matrix(1,0,0,1,489.65899658203125,467.33599853515625)"><path stroke-linecap="butt" stroke-linejoin="miter" fill-opacity="0" stroke-miterlimit="10" stroke="rgb(59,55,117)" stroke-opacity="1" stroke-width="2" d=" M12.916000366210938,0 C12.916000366210938,7.132999897003174 7.132999897003174,12.916000366210938 0,12.916000366210938 C-7.132999897003174,12.916000366210938 -12.916000366210938,7.132999897003174 -12.916000366210938,0 C-12.916000366210938,-7.132999897003174 -7.132999897003174,-12.916000366210938 0,-12.916000366210938 C7.132999897003174,-12.916000366210938 12.916000366210938,-7.132999897003174 12.916000366210938,0z"></path></g></g><g transform="matrix(1,0,0,1,0,0)" opacity="1" style="display: block;"><g opacity="1" transform="matrix(1,0,0,1,842.2559814453125,466.4010009765625)"><path stroke-linecap="butt" stroke-linejoin="miter" fill-opacity="0" stroke-miterlimit="10" stroke="rgb(59,55,117)" stroke-opacity="1" stroke-width="2" d=" M-84.64099884033203,-39.57699966430664 C-84.64099884033203,-39.57699966430664 -54.62900161743164,26.648000717163086 -54.62900161743164,26.648000717163086 C-51.06100082397461,34.52000045776367 -43.21799850463867,39.57699966430664 -34.57500076293945,39.57699966430664 C-34.57500076293945,39.57699966430664 84.64099884033203,39.57699966430664 84.64099884033203,39.57699966430664"></path></g><g opacity="1" transform="matrix(1,0,0,1,754.8569946289062,420.8869934082031)"><path fill="rgb(255,255,255)" fill-opacity="1" d=" M7.541999816894531,0 C7.541999816894531,4.164999961853027 4.164999961853027,7.541999816894531 0,7.541999816894531 C-4.164999961853027,7.541999816894531 -7.541999816894531,4.164999961853027 -7.541999816894531,0 C-7.541999816894531,-4.164999961853027 -4.164999961853027,-7.541999816894531 0,-7.541999816894531 C4.164999961853027,-7.541999816894531 7.541999816894531,-4.164999961853027 7.541999816894531,0z"></path></g><g opacity="1" transform="matrix(1,0,0,1,754.8569946289062,420.8869934082031)"><path stroke-linecap="butt" stroke-linejoin="miter" fill-opacity="0" stroke-miterlimit="10" stroke="rgb(59,55,117)" stroke-opacity="1" stroke-width="2" d=" M12.916000366210938,0 C12.916000366210938,7.132999897003174 7.132999897003174,12.916000366210938 0,12.916000366210938 C-7.132999897003174,12.916000366210938 -12.916000366210938,7.132999897003174 -12.916000366210938,0 C-12.916000366210938,-7.132999897003174 -7.132999897003174,-12.916000366210938 0,-12.916000366210938 C7.132999897003174,-12.916000366210938 12.916000366210938,-7.132999897003174 12.916000366210938,0z"></path></g></g><g fill="rgb(102,98,152)" font-size="21.8169593811035" font-family="Inter" font-style="normal" font-weight="700" aria-label="On-Prem" transform="matrix(1,0,0,1,827.8259887695312,492.5350036621094)" opacity="1" style="display: block;"><path stroke-linecap="butt" stroke-linejoin="round" stroke-miterlimit="4" d=" M14.98,-12.35 C14.33,-13.56 13.44,-14.49 12.31,-15.13 C11.19,-15.76 9.93,-16.08 8.53,-16.08 C7.12,-16.08 5.85,-15.76 4.73,-15.13 C3.61,-14.49 2.73,-13.56 2.08,-12.35 C1.43,-11.14 1.1,-9.66 1.1,-7.93 C1.1,-6.21 1.43,-4.74 2.08,-3.53 C2.73,-2.31 3.61,-1.38 4.73,-0.74 C5.85,-0.1 7.12,0.22 8.53,0.22 C9.93,0.22 11.19,-0.1 12.31,-0.74 C13.44,-1.38 14.33,-2.3 14.98,-3.52 C15.63,-4.73 15.96,-6.2 15.96,-7.93 C15.96,-9.66 15.63,-11.14 14.98,-12.35z M12.06,-5.1 C11.73,-4.33 11.26,-3.74 10.65,-3.35 C10.05,-2.95 9.34,-2.75 8.53,-2.75 C7.72,-2.75 7.01,-2.95 6.41,-3.35 C5.8,-3.74 5.33,-4.33 5,-5.1 C4.67,-5.87 4.5,-6.81 4.5,-7.93 C4.5,-9.05 4.67,-10 5,-10.77 C5.33,-11.54 5.8,-12.12 6.41,-12.52 C7.01,-12.92 7.72,-13.12 8.53,-13.12 C9.34,-13.12 10.05,-12.92 10.65,-12.52 C11.26,-12.12 11.73,-11.54 12.06,-10.77 C12.39,-10 12.56,-9.05 12.56,-7.93 C12.56,-6.81 12.39,-5.87 12.06,-5.1z M21.97,-8.19 C22.16,-8.56 22.42,-8.83 22.76,-9.03 C23.1,-9.22 23.49,-9.31 23.93,-9.31 C24.59,-9.31 25.11,-9.11 25.49,-8.7 C25.87,-8.29 26.05,-7.72 26.05,-6.99 C26.05,-6.99 26.05,0 26.05,0 C26.05,0 29.35,0 29.35,0 C29.35,0 29.35,-7.58 29.35,-7.58 C29.35,-8.5 29.18,-9.3 28.84,-9.97 C28.5,-10.64 28.02,-11.15 27.4,-11.51 C26.79,-11.87 26.07,-12.06 25.24,-12.06 C24.36,-12.06 23.61,-11.85 22.99,-11.45 C22.37,-11.04 21.93,-10.49 21.66,-9.8 C21.66,-9.8 21.52,-9.8 21.52,-9.8 C21.52,-9.8 21.52,-11.9 21.52,-11.9 C21.52,-11.9 18.38,-11.9 18.38,-11.9 C18.38,-11.9 18.38,0 18.38,0 C18.38,0 21.68,0 21.68,0 C21.68,0 21.68,-6.88 21.68,-6.88 C21.68,-7.39 21.78,-7.83 21.97,-8.19z M32.12,-7.82 C32.12,-7.82 32.12,-5.21 32.12,-5.21 C32.12,-5.21 39.36,-5.21 39.36,-5.21 C39.36,-5.21 39.36,-7.82 39.36,-7.82 C39.36,-7.82 32.12,-7.82 32.12,-7.82z M45.59,0 C45.59,0 45.59,-13.12 45.59,-13.12 C45.59,-13.12 47.85,-13.12 47.85,-13.12 C48.5,-13.12 49.04,-13.01 49.46,-12.79 C49.89,-12.58 50.2,-12.27 50.41,-11.87 C50.62,-11.48 50.72,-11.02 50.72,-10.49 C50.72,-9.97 50.62,-9.51 50.41,-9.11 C50.2,-8.71 49.89,-8.39 49.47,-8.17 C49.04,-7.95 48.51,-7.83 47.87,-7.83 C47.87,-7.83 44.42,-7.83 44.42,-7.83 C44.42,-7.83 44.42,-5.14 44.42,-5.14 C44.42,-5.14 48.41,-5.14 48.41,-5.14 C49.63,-5.14 50.67,-5.37 51.53,-5.82 C52.39,-6.27 53.04,-6.9 53.5,-7.7 C53.95,-8.51 54.18,-9.44 54.18,-10.49 C54.18,-11.54 53.96,-12.47 53.51,-13.28 C53.06,-14.09 52.42,-14.72 51.57,-15.18 C50.72,-15.64 49.7,-15.87 48.49,-15.87 C48.49,-15.87 42.23,-15.87 42.23,-15.87 C42.23,-15.87 42.23,0 42.23,0 C42.23,0 45.59,0 45.59,0z M59.6,0 C59.6,0 59.6,-6.73 59.6,-6.73 C59.6,-7.22 59.71,-7.65 59.93,-8.02 C60.15,-8.39 60.45,-8.68 60.83,-8.89 C61.21,-9.1 61.64,-9.2 62.13,-9.2 C62.36,-9.2 62.61,-9.19 62.88,-9.15 C63.15,-9.11 63.37,-9.07 63.52,-9.03 C63.52,-9.03 63.52,-11.95 63.52,-11.95 C63.38,-11.99 63.21,-12.02 63.02,-12.04 C62.83,-12.06 62.65,-12.07 62.48,-12.07 C61.82,-12.07 61.23,-11.88 60.72,-11.5 C60.21,-11.12 59.84,-10.56 59.63,-9.82 C59.63,-9.82 59.5,-9.82 59.5,-9.82 C59.5,-9.82 59.5,-11.9 59.5,-11.9 C59.5,-11.9 56.3,-11.9 56.3,-11.9 C56.3,-11.9 56.3,0 56.3,0 C56.3,0 59.6,0 59.6,0z M73.24,-0.22 C73.99,-0.52 74.61,-0.95 75.09,-1.49 C75.56,-2.04 75.88,-2.68 76.03,-3.41 C76.03,-3.41 72.98,-3.61 72.98,-3.61 C72.87,-3.31 72.7,-3.06 72.49,-2.85 C72.27,-2.64 72.01,-2.49 71.7,-2.39 C71.4,-2.28 71.06,-2.23 70.7,-2.23 C70.14,-2.23 69.67,-2.35 69.26,-2.58 C68.86,-2.81 68.55,-3.14 68.33,-3.57 C68.11,-4 68,-4.51 68,-5.1 C68,-5.1 68,-7.04 68,-7.04 C68.01,-7.51 68.12,-7.94 68.33,-8.32 C68.55,-8.71 68.85,-9.02 69.24,-9.25 C69.62,-9.48 70.06,-9.59 70.56,-9.59 C71.05,-9.59 71.47,-9.49 71.83,-9.28 C72.2,-9.07 72.48,-8.78 72.69,-8.41 C72.89,-8.05 73,-7.63 73,-7.15 C73,-7.15 66.06,-7.15 66.06,-7.15 C66.06,-7.15 66.06,-5.11 66.06,-5.11 C66.06,-5.11 76.1,-5.11 76.1,-5.11 C76.1,-5.11 76.1,-6.01 76.1,-6.01 C76.1,-7.02 75.96,-7.91 75.68,-8.67 C75.39,-9.42 75,-10.05 74.49,-10.55 C73.98,-11.05 73.39,-11.43 72.71,-11.68 C72.03,-11.93 71.3,-12.06 70.51,-12.06 C69.34,-12.06 68.33,-11.8 67.46,-11.28 C66.6,-10.76 65.93,-10.04 65.45,-9.12 C64.98,-8.19 64.74,-7.12 64.74,-5.9 C64.74,-4.64 64.98,-3.55 65.45,-2.64 C65.93,-1.72 66.6,-1.01 67.49,-0.52 C68.37,-0.02 69.42,0.23 70.64,0.23 C71.62,0.23 72.49,0.08 73.24,-0.22z M81.56,0 C81.56,0 81.56,-7.14 81.56,-7.14 C81.56,-7.58 81.64,-7.97 81.82,-8.29 C81.99,-8.62 82.22,-8.88 82.51,-9.06 C82.8,-9.24 83.13,-9.34 83.5,-9.34 C84.04,-9.34 84.48,-9.16 84.81,-8.82 C85.14,-8.47 85.31,-8.01 85.31,-7.42 C85.31,-7.42 85.31,0 85.31,0 C85.31,0 88.51,0 88.51,0 C88.51,0 88.51,-7.27 88.51,-7.27 C88.51,-7.89 88.68,-8.39 89.01,-8.77 C89.35,-9.15 89.82,-9.34 90.41,-9.34 C90.94,-9.34 91.38,-9.17 91.73,-8.84 C92.08,-8.51 92.26,-8.01 92.26,-7.35 C92.26,-7.35 92.26,0 92.26,0 C92.26,0 95.55,0 95.55,0 C95.55,0 95.55,-8 95.55,-8 C95.55,-9.29 95.2,-10.29 94.51,-11 C93.81,-11.7 92.91,-12.06 91.8,-12.06 C90.93,-12.06 90.17,-11.85 89.54,-11.44 C88.9,-11.03 88.46,-10.48 88.21,-9.8 C88.21,-9.8 88.09,-9.8 88.09,-9.8 C87.9,-10.49 87.52,-11.04 86.94,-11.45 C86.37,-11.85 85.68,-12.06 84.86,-12.06 C84.05,-12.06 83.36,-11.85 82.78,-11.45 C82.2,-11.05 81.79,-10.5 81.54,-9.8 C81.54,-9.8 81.4,-9.8 81.4,-9.8 C81.4,-9.8 81.4,-11.9 81.4,-11.9 C81.4,-11.9 78.26,-11.9 78.26,-11.9 C78.26,-11.9 78.26,0 78.26,0 C78.26,0 81.56,0 81.56,0z" style="display: inherit;"></path></g><g transform="matrix(1,0,0,1,0,0)" opacity="1" style="display: block;"><g opacity="1" transform="matrix(1,0,0,1,781.801025390625,241.5279998779297)"><path stroke-linecap="butt" stroke-linejoin="miter" fill-opacity="0" stroke-miterlimit="10" stroke="rgb(59,55,117)" stroke-opacity="1" stroke-width="2" d=" M-77.16799926757812,39.57699966430664 C-77.16799926757812,39.57699966430664 -47.15700149536133,-26.648000717163086 -47.15700149536133,-26.648000717163086 C-43.5890007019043,-34.52000045776367 -35.74599838256836,-39.57699966430664 -27.10300064086914,-39.57699966430664 C-27.10300064086914,-39.57699966430664 77.16799926757812,-39.57699966430664 77.16799926757812,-39.57699966430664"></path></g><g opacity="1" transform="matrix(1,0,0,1,704.6329956054688,281.1050109863281)"><path fill="rgb(255,255,255)" fill-opacity="1" d=" M7.541999816894531,0 C7.541999816894531,4.164999961853027 4.164999961853027,7.541999816894531 0,7.541999816894531 C-4.164999961853027,7.541999816894531 -7.541999816894531,4.164999961853027 -7.541999816894531,0 C-7.541999816894531,-4.164999961853027 -4.164999961853027,-7.541999816894531 0,-7.541999816894531 C4.164999961853027,-7.541999816894531 7.541999816894531,-4.164999961853027 7.541999816894531,0z"></path></g><g opacity="1" transform="matrix(1,0,0,1,704.6329956054688,281.1050109863281)"><path stroke-linecap="butt" stroke-linejoin="miter" fill-opacity="0" stroke-miterlimit="10" stroke="rgb(59,55,117)" stroke-opacity="1" stroke-width="2" d=" M12.916000366210938,0 C12.916000366210938,7.132999897003174 7.132999897003174,12.916000366210938 0,12.916000366210938 C-7.132999897003174,12.916000366210938 -12.916000366210938,7.132999897003174 -12.916000366210938,0 C-12.916000366210938,-7.132999897003174 -7.132999897003174,-12.916000366210938 0,-12.916000366210938 C7.132999897003174,-12.916000366210938 12.916000366210938,-7.132999897003174 12.916000366210938,0z"></path></g></g><g transform="matrix(1,0,0,1,0,0)" opacity="1" style="display: block;"><g opacity="1" transform="matrix(1,0,0,1,0,0)"><g opacity="1" transform="matrix(1,0,0,1,395.7760009765625,159.39300537109375)"><path fill="rgb(66,132,242)" fill-opacity="1" d=" M0.5820000171661377,-25.283000946044922 C0.781000018119812,-25.138999938964844 0.9990000128746033,-25.016000747680664 1.1770000457763672,-24.849000930786133 C4.927000045776367,-21.336999893188477 7.513000011444092,-17.104000091552734 9.013999938964844,-12.194999694824219 C9.107999801635742,-11.887999534606934 9.331000328063965,-11.562999725341797 9.586999893188477,-11.369999885559082 C14.140000343322754,-7.939000129699707 16.959999084472656,-3.428999900817871 17.70199966430664,2.2200000286102295 C18.601999282836914,9.071999549865723 16.50200080871582,14.972999572753906 11.487000465393066,19.7549991607666 C7.498000144958496,23.55900001525879 2.6760001182556152,25.305999755859375 -2.816999912261963,25.283000946044922 C-7.8420000076293945,25.261999130249023 -12.866999626159668,25.264999389648438 -17.891000747680664,25.256999969482422 C-17.895000457763672,21.106000900268555 -17.899999618530273,16.954999923706055 -17.905000686645508,12.803999900817871 C-16.523000717163086,12.798999786376953 -15.140999794006348,12.791000366210938 -13.758999824523926,12.788999557495117 C-9.86400032043457,12.782999992370605 -5.968999862670898,12.831000328063965 -2.075000047683716,12.76200008392334 C1.7760000228881836,12.694000244140625 5.0269999504089355,9.638999938964844 5.38700008392334,5.883999824523926 C5.771999835968018,1.8730000257492065 3.2190001010894775,-1.7350000143051147 -0.6290000081062317,-2.5959999561309814 C-1.184000015258789,-2.7200000286102295 -1.75600004196167,-2.7669999599456787 -2.3540000915527344,-2.8540000915527344 C-2.3540000915527344,-3.313999891281128 -2.3480000495910645,-3.739000082015991 -2.3540000915527344,-4.164999961853027 C-2.421999931335449,-9.119999885559082 -4.26800012588501,-13.236000061035156 -8.130999565124512,-16.39900016784668 C-7.942999839782715,-16.628999710083008 -7.7729997634887695,-16.875 -7.565000057220459,-17.084999084472656 C-4.8520002365112305,-19.820999145507812 -2.134999990463257,-22.551000595092773 0.5820000171661377,-25.283000946044922z"></path></g><g opacity="1" transform="matrix(1,0,0,1,360.177001953125,162.43299865722656)"><path fill="rgb(249,187,5)" fill-opacity="1" d=" M-10.032999992370605,18.125 C-12.373000144958496,16.51300048828125 -14.156000137329102,14.390000343322754 -15.527999877929688,11.934000015258789 C-20.55699920654297,2.936000108718872 -18.11400032043457,-8.170999526977539 -9.803000450134277,-14.246999740600586 C-9.602999687194824,-14.394000053405762 -9.413999557495117,-14.557000160217285 -9.220000267028809,-14.711999893188477 C-8.298999786376953,-15.217000007629395 -7.400000095367432,-15.770999908447266 -6.451000213623047,-16.216999053955078 C-2.438999891281128,-18.104000091552734 1.7630000114440918,-18.534000396728516 6.10699987411499,-17.760000228881836 C8.986000061035156,-17.131000518798828 11.649999618530273,-16.009000778198242 14.036999702453613,-14.265999794006348 C15.642000198364258,-13.093999862670898 17.058000564575195,-11.732999801635742 18.131000518798828,-10.300999641418457 C15.098999977111816,-7.236000061035156 12.140999794006348,-4.244999885559082 9.26200008392334,-1.3339999914169312 C8.685999870300293,-2.0510001182556152 8.137999534606934,-2.872999906539917 7.453999996185303,-3.556999921798706 C5.11899995803833,-5.890999794006348 1.3329999446868896,-6.361000061035156 -1.6100000143051147,-4.745999813079834 C-4.578999996185303,-3.115999937057495 -6.175000190734863,0.2750000059604645 -5.505000114440918,3.5369999408721924 C-4.9720001220703125,6.131999969482422 -3.434999942779541,7.939000129699707 -1.1100000143051147,9.12600040435791 C-1.3109999895095825,9.345999717712402 -1.503999948501587,9.574000358581543 -1.7139999866485596,9.78499984741211 C-4.486000061035156,12.565999984741211 -7.260000228881836,15.345999717712402 -10.032999992370605,18.125z"></path></g><g opacity="1" transform="matrix(1,0,0,1,373.62701416015625,137.38699340820312)"><path fill="rgb(232,67,53)" fill-opacity="1" d=" M-7.3429999351501465,7.285999774932861 C-11.687000274658203,6.51200008392334 -15.888999938964844,6.941999912261963 -19.900999069213867,8.829000473022461 C-20.850000381469727,9.274999618530273 -21.749000549316406,9.829000473022461 -22.670000076293945,10.333999633789062 C-22.68600082397461,10.100000381469727 -22.770999908447266,9.845000267028809 -22.70800018310547,9.633999824523926 C-21.45599937438965,5.415999889373779 -19.299999237060547,1.7089999914169312 -16.277999877929688,-1.4769999980926514 C-11.628999710083008,-6.379000186920166 -5.951000213623047,-9.352999687194824 0.7630000114440918,-10.125 C9.060999870300293,-11.079000473022461 16.409000396728516,-8.770000457763672 22.731000900268555,-3.2760000228881836 C20.013999938964844,-0.5440000295639038 17.297000885009766,2.184999942779541 14.583999633789062,4.921000003814697 C14.37600040435791,5.13100004196167 14.206000328063965,5.377999782562256 14.017999649047852,5.607999801635742 C13.727999687194824,5.414000034332275 13.430999755859375,5.230000019073486 13.14799976348877,5.025000095367432 C6.8470001220703125,0.46399998664855957 -2.25,1.4670000076293945 -7.3429999351501465,7.285999774932861z"></path></g><g opacity="1" transform="matrix(1,0,0,1,364.0140075683594,178.1199951171875)"><path fill="rgb(52,167,83)" fill-opacity="1" d=" M-13.869999885559082,2.437999963760376 C-11.097000122070312,-0.3409999907016754 -8.322999954223633,-3.121000051498413 -5.551000118255615,-5.9019999504089355 C-5.341000080108643,-6.11299991607666 -5.1479997634887695,-6.3420000076293945 -4.947000026702881,-6.561999797821045 C-3.203000068664551,-5.85099983215332 -1.371000051498413,-5.916999816894531 0.46000000834465027,-5.921999931335449 C4.926000118255615,-5.933000087738037 9.390999794006348,-5.923999786376953 13.857000350952148,-5.922999858856201 C13.862000465393066,-1.7719999551773071 13.866000175476074,2.378999948501587 13.869999885559082,6.53000020980835 C8.279000282287598,6.526000022888184 2.684999942779541,6.630000114440918 -2.9019999504089355,6.48199987411499 C-6.960000038146973,6.374000072479248 -10.630000114440918,4.916999816894531 -13.869999885559082,2.437999963760376z"></path></g></g><g opacity="1" transform="matrix(1,0,0,1,417.0429992675781,238.11000061035156)"><path stroke-linecap="butt" stroke-linejoin="miter" fill-opacity="0" stroke-miterlimit="10" stroke="rgb(59,55,117)" stroke-opacity="1" stroke-width="2" d=" M90.4219970703125,39.57699966430664 C90.4219970703125,39.57699966430664 60.40999984741211,-26.648000717163086 60.40999984741211,-26.648000717163086 C56.84199905395508,-34.52000045776367 49,-39.57699966430664 40.356998443603516,-39.57699966430664 C40.356998443603516,-39.57699966430664 -90.4219970703125,-39.57699966430664 -90.4219970703125,-39.57699966430664"></path></g><g opacity="1" transform="matrix(1,0,0,1,505.1600036621094,277.68701171875)"><path fill="rgb(255,255,255)" fill-opacity="1" d=" M7.541999816894531,0 C7.541999816894531,4.164999961853027 4.164999961853027,7.541999816894531 0,7.541999816894531 C-4.164999961853027,7.541999816894531 -7.541999816894531,4.164999961853027 -7.541999816894531,0 C-7.541999816894531,-4.164999961853027 -4.164999961853027,-7.541999816894531 0,-7.541999816894531 C4.164999961853027,-7.541999816894531 7.541999816894531,-4.164999961853027 7.541999816894531,0z"></path></g><g opacity="1" transform="matrix(1,0,0,1,505.1600036621094,277.68701171875)"><path stroke-linecap="butt" stroke-linejoin="miter" fill-opacity="0" stroke-miterlimit="10" stroke="rgb(59,55,117)" stroke-opacity="1" stroke-width="2" d=" M12.916000366210938,0 C12.916000366210938,7.132999897003174 7.132999897003174,12.916000366210938 0,12.916000366210938 C-7.132999897003174,12.916000366210938 -12.916000366210938,7.132999897003174 -12.916000366210938,0 C-12.916000366210938,-7.132999897003174 -7.132999897003174,-12.916000366210938 0,-12.916000366210938 C7.132999897003174,-12.916000366210938 12.916000366210938,-7.132999897003174 12.916000366210938,0z"></path></g></g><g transform="matrix(1,0,0,1,0,0)" opacity="1" style="display: block;"><g opacity="1" transform="matrix(1,0,0,1,804.1589965820312,162.64999389648438)"><path fill="url(#__lottie_element_331)" fill-opacity="1" d=" M-12.258999824523926,28.5 C-14.359000205993652,28.5 -15.758999824523926,26.5 -15.059000015258789,24.5 C-15.059000015258789,24.5 2.3410000801086426,-26.5 2.3410000801086426,-26.5 C2.6410000324249268,-27.5 3.440999984741211,-28.5 4.940999984741211,-28.5 C6.540999889373779,-28.5 9.640999794006348,-28.5 9.640999794006348,-28.5 C9.640999794006348,-28.5 15.241000175476074,-6.099999904632568 15.241000175476074,-6.099999904632568 C15.241000175476074,-6.099999904632568 4.140999794006348,26.700000762939453 4.140999794006348,26.700000762939453 C3.740999937057495,27.700000762939453 2.8410000801086426,28.5 1.7410000562667847,28.5 C1.7410000562667847,28.5 -12.258999824523926,28.5 -12.258999824523926,28.5z"></path></g><g opacity="1" transform="matrix(1,0,0,1,821.5040283203125,181.14999389648438)"><path fill="url(#__lottie_element_332)" fill-opacity="1" d=" M4.796000003814697,10 C3.8959999084472656,10 2.696000099182129,9.5 1.7960000038146973,8.800000190734863 C1.0959999561309814,8.199999809265137 -11.003999710083008,-3.0999999046325684 -16.104000091552734,-7.900000095367432 C-16.90399932861328,-8.699999809265137 -16.40399932861328,-10 -15.303999900817871,-10 C-15.303999900817871,-10 3.696000099182129,-10 3.696000099182129,-10 C3.696000099182129,-10 16.496000289916992,1.899999976158142 16.496000289916992,1.899999976158142 C16.496000289916992,1.899999976158142 10.696000099182129,7.900000095367432 10.696000099182129,7.900000095367432 C10.696000099182129,7.900000095367432 8.696000099182129,9.699999809265137 8.696000099182129,9.699999809265137 C8.696000099182129,9.699999809265137 4.796000003814697,10 4.796000003814697,10z"></path></g><g opacity="1" transform="matrix(1,0,0,1,829.2780151367188,162.5500030517578)"><path fill="url(#__lottie_element_333)" fill-opacity="1" d=" M-20.17799949645996,-28.5 C-18.777999877929688,-28.299999237060547 -17.777999877929688,-28 -16.97800064086914,-25.799999237060547 C-16.277999877929688,-23.600000381469727 -0.4779999852180481,23.200000762939453 0.02199999988079071,24.700000762939453 C0.5220000147819519,26.200000762939453 -0.17800000309944153,28.299999237060547 -2.878000020980835,28.5 C-2.878000020980835,28.5 17.621999740600586,28.5 17.621999740600586,28.5 C19.422000885009766,28.5 20.621999740600586,26.799999237060547 20.02199935913086,25.100000381469727 C20.02199935913086,25.100000381469727 2.5220000743865967,-26.700000762939453 2.5220000743865967,-26.700000762939453 C2.121999979019165,-27.799999237060547 1.121999979019165,-28.5 0.02199999988079071,-28.5 C0.02199999988079071,-28.5 -20.17799949645996,-28.5 -20.17799949645996,-28.5z"></path></g></g></g></svg>